<svg xmlns="http://www.w3.org/2000/svg" width="412" height="412" viewBox="0 0 412 412">
  <rect width="412" height="412" fill="#efeae2"/>
  <g fill="none" stroke="#9a8c7e" stroke-width="0.9" stroke-linecap="round" stroke-linejoin="round" opacity="0.28">
    <g transform="translate(48,42) rotate(-6)">
      <path d="M2 14c0-7.7 6.3-14 14-14h32c7.7 0 14 6.3 14 14v20c0 7.7-6.3 14-14 14H18l-12 10v-10H16C8.3 48 2 41.7 2 34V14z"/>
      <circle cx="16" cy="28" r="2" fill="#9a8c7e" stroke="none"/>
      <circle cx="28" cy="28" r="2" fill="#9a8c7e" stroke="none"/>
      <circle cx="40" cy="28" r="2" fill="#9a8c7e" stroke="none"/>
    </g>
    <g transform="translate(290,55) rotate(10)">
      <path d="M18 34C6 20 0 14 0 6a6 6 0 0 1 12 0 6 6 0 0 1 12 0c0 8-6 14-18 28z"/>
    </g>
    <g transform="translate(170,28) rotate(-4)">
      <circle cx="16" cy="16" r="14"/>
      <path d="M16 10v8l5 3"/>
    </g>
    <g transform="translate(340,170) rotate(8)">
      <path d="M12 2l3 9h9l-7 5 3 9-8-6-8 6 3-9-7-5h9z"/>
    </g>
    <g transform="translate(24,155) rotate(-12)">
      <rect x="4" y="8" width="28" height="20" rx="3"/>
      <circle cx="18" cy="18" r="6"/>
      <path d="M4 14h4M32 14h4"/>
    </g>
    <g transform="translate(200,120) rotate(5)">
      <path d="M18 0C10 0 4 6 4 14c0 10 14 22 14 22s14-12 14-22C32 6 26 0 18 0z"/>
      <circle cx="18" cy="14" r="5"/>
    </g>
    <g transform="translate(120,200) rotate(-8)">
      <circle cx="14" cy="14" r="12"/>
      <path d="M8 18c2 3 6 5 10 4"/>
      <circle cx="10" cy="11" r="1.5" fill="#9a8c7e" stroke="none"/>
      <circle cx="18" cy="11" r="1.5" fill="#9a8c7e" stroke="none"/>
    </g>
    <g transform="translate(310,280) rotate(-5)">
      <path d="M0 8h36M0 16h24M0 24h30"/>
      <path d="M28 0v32"/>
    </g>
    <g transform="translate(55,290) rotate(6)">
      <path d="M8 0v24M0 8h16"/>
      <path d="M24 16c4 0 8 2 8 6s-4 6-8 6"/>
    </g>
    <g transform="translate(190,310) rotate(-3)">
      <rect x="0" y="6" width="32" height="24" rx="2"/>
      <path d="M0 12h32M16 6v24"/>
      <path d="M8 0h16v6H8z"/>
    </g>
    <g transform="translate(360,360) rotate(15)">
      <path d="M0 20h8l4-8 4 16 4-12 4 8h8"/>
    </g>
    <g transform="translate(0,360) rotate(-10)">
      <path d="M12 0a12 12 0 1 1 0 24 12 12 0 0 1 0-24z"/>
      <path d="M12 6v6l4 2"/>
    </g>
    <g transform="translate(240,230) rotate(7)">
      <path d="M0 12c0-6.6 5.4-12 12-12h4l6-6 6 6h4c6.6 0 12 5.4 12 12v8c0 6.6-5.4 12-12 12H12C5.4 32 0 26.6 0 20v-8z"/>
    </g>
    <g transform="translate(140,360) rotate(-7)">
      <circle cx="10" cy="10" r="8"/>
      <path d="M10 2v4M10 14v4M2 10h4M14 10h4"/>
    </g>
    <g transform="translate(380,30) rotate(-15)">
      <path d="M6 0l2 6h6l-5 4 2 6-5-4-5 4 2-6-5-4h6z"/>
    </g>
  </g>
</svg>
