<svg width="359" height="274" viewBox="0 0 359 274" fill="none" xmlns="http://www.w3.org/2000/svg">
<path fill-rule="evenodd" clip-rule="evenodd" d="M277.784 62.0284L297.703 81.9086V274H236.258V200.238L173.415 274H79.3667C35.7883 274 0 237.351 0 192.718V143.344C0 98.6879 35.8327 62.0284 79.4778 62.0284H277.784ZM108.974 104.89C76.8034 104.89 60.2576 114.758 60.2576 147.165V188.974C60.2576 221.381 76.8145 231.725 108.974 231.725H154.927L236.258 135.901V104.89H108.974Z" fill="#FF4207"/>
<path d="M323.8 0C337.549 13.7224 345.251 21.4087 359 35.1311V117.299H316.576L315.444 61.9337C308.419 54.9341 302.172 49.8725 295.158 42.8729H223.571V0H323.8Z" fill="#FF4207"/>
</svg>

