<svg width="1440" height="1024" viewBox="0 0 1440 1024" fill="none" xmlns="http://www.w3.org/2000/svg">
<g opacity="0.2">
<path d="M520.059 845.667C557.655 883.258 578.713 904.314 616.308 941.906V1167H500.306L497.211 1015.33C478.004 996.155 460.921 982.289 441.744 963.114H246V845.667H520.059Z" fill="#CBCBCB"/>
<path d="M704.733 685C742.328 722.592 763.386 743.648 800.981 781.239V1006.33H684.979L681.884 854.663C662.677 835.488 645.594 821.622 626.417 802.447H430.673V685H704.733Z" fill="#E4E4E4"/>
<path d="M889.406 524.333C927.001 561.925 948.059 582.981 985.654 620.573V845.667H869.652L866.557 693.996C847.35 674.821 830.267 660.956 811.09 641.781H615.346V524.333H889.406Z" fill="#CBCBCB"/>
<path d="M1074.08 363.667C1111.67 401.258 1132.73 422.314 1170.33 459.906V685H1054.33L1051.23 533.33C1032.02 514.155 1014.94 500.289 995.763 481.114H800.019V363.667H1074.08Z" fill="#E4E4E4"/>
<path d="M1258.75 203C1296.35 240.592 1317.4 261.648 1355 299.239V524.333H1239L1235.9 372.663C1216.7 353.488 1199.61 339.622 1180.44 320.447H984.692V203H1258.75Z" fill="#CBCBCB"/>
<path d="M109.059 642.667C146.655 680.258 167.713 701.314 205.308 738.906V964H89.3063L86.2112 812.33C67.0041 793.155 49.9207 779.289 30.744 760.114H-165V642.667H109.059Z" fill="#E4E4E4"/>
<path d="M293.732 482C331.328 519.592 352.386 540.648 389.981 578.239V803.333H273.979L270.884 651.663C251.677 632.488 234.594 618.622 215.417 599.447H19.673V482H293.732Z" fill="#CBCBCB"/>
<path d="M478.406 321.333C516.001 358.925 537.059 379.981 574.654 417.573V642.667H458.652L455.557 490.996C436.35 471.821 419.267 457.956 400.09 438.781H204.346V321.333H478.406Z" fill="#CBCBCB"/>
<path d="M663.078 160.667C700.674 198.258 721.732 219.314 759.327 256.906V482H643.325L640.23 330.33C621.023 311.155 603.94 297.289 584.763 278.114H389.019V160.667H663.078Z" fill="#CBCBCB"/>
<path d="M847.752 0C885.347 37.5915 906.405 58.6478 944 96.2393V321.333H827.998L824.903 169.663C805.696 150.488 788.613 136.622 769.436 117.447H573.692V0H847.752Z" fill="#CBCBCB"/>
<path d="M-300.941 436.667C-263.345 474.258 -242.287 495.314 -204.692 532.906V758H-320.694L-323.789 606.33C-342.996 587.155 -360.079 573.289 -379.256 554.114H-575V436.667H-300.941Z" fill="#CBCBCB"/>
<path d="M-116.268 276C-78.6723 313.592 -57.6143 334.648 -20.0191 372.239V597.333H-136.021L-139.116 445.663C-158.323 426.488 -175.406 412.622 -194.583 393.447H-390.327V276H-116.268Z" fill="#CBCBCB"/>
<path d="M68.4055 115.333C106.001 152.925 127.059 173.981 164.654 211.573V436.667H48.6523L45.5573 284.996C26.3501 265.821 9.26675 251.956 -9.91003 232.781H-205.654V115.333H68.4055Z" fill="#CBCBCB"/>
<path d="M253.078 -45.3333C290.674 -7.74178 311.732 13.3145 349.327 50.906V163.453V276H233.325L230.23 124.33C211.023 105.155 193.94 91.2888 174.763 72.114H-20.981V-45.3333H253.078Z" fill="#E4E4E4"/>
<path d="M437.752 -206C475.347 -168.408 496.405 -147.352 534 -109.761V115.333H417.998L414.903 -36.337C395.696 -55.512 378.613 -69.3778 359.436 -88.5527H163.692V-206H437.752Z" fill="#CBCBCB"/>
<path d="M1144.06 879.667C1181.65 917.258 1202.71 938.314 1240.31 975.906V1201H1124.31L1121.21 1049.33C1102 1030.15 1084.92 1016.29 1065.74 997.114H870V879.667H1144.06Z" fill="#CBCBCB"/>
<path d="M1328.73 719C1366.33 756.592 1387.39 777.648 1424.98 815.239V1040.33H1308.98L1305.88 888.663C1286.68 869.488 1269.59 855.622 1250.42 836.447H1054.67V719H1328.73Z" fill="#CBCBCB"/>
<path d="M1513.41 558.333C1551 595.925 1572.06 616.981 1609.65 654.573V879.667H1493.65L1490.56 727.996C1471.35 708.821 1454.27 694.956 1435.09 675.781H1239.35V558.333H1513.41Z" fill="#CBCBCB"/>
<path d="M1698.08 397.667C1735.67 435.258 1756.73 456.314 1794.33 493.906V719H1678.33L1675.23 567.33C1656.02 548.155 1638.94 534.289 1619.76 515.114H1424.02V397.667H1698.08Z" fill="#E4E4E4"/>
<path d="M1882.75 237C1920.35 274.592 1941.4 295.648 1979 333.239V558.333H1863L1859.9 406.663C1840.7 387.488 1823.61 373.622 1804.44 354.447H1608.69V237H1882.75Z" fill="#CBCBCB"/>
<path d="M1441.06 34.6666C1478.65 72.2582 1499.71 93.3144 1537.31 130.906V356H1421.31L1418.21 204.33C1399 185.155 1381.92 171.289 1362.74 152.114H1167V34.6666H1441.06Z" fill="#CBCBCB"/>
<path d="M1625.73 -126C1663.33 -88.4085 1684.39 -67.3523 1721.98 -29.7607V195.333H1605.98L1602.88 43.663C1583.68 24.488 1566.59 10.6221 1547.42 -8.55273H1351.67V-126H1625.73Z" fill="#CBCBCB"/>
<path d="M1810.41 -286.667C1848 -249.075 1869.06 -228.019 1906.65 -190.427V34.6666H1790.65L1787.56 -117.004C1768.35 -136.179 1751.27 -150.044 1732.09 -169.219H1536.35V-286.667H1810.41Z" fill="#CBCBCB"/>
<path d="M1995.08 -447.333C2032.67 -409.742 2053.73 -388.686 2091.33 -351.094V-126H1975.33L1972.23 -277.67C1953.02 -296.845 1935.94 -310.711 1916.76 -329.886H1721.02V-447.333H1995.08Z" fill="#CBCBCB"/>
<path d="M2179.75 -608C2217.35 -570.408 2238.4 -549.352 2276 -511.761V-286.667H2160L2156.9 -438.337C2137.7 -457.512 2120.61 -471.378 2101.44 -490.553H1905.69V-608H2179.75Z" fill="#CBCBCB"/>
<path d="M1028.06 -171.333C1065.65 -133.742 1086.71 -112.686 1124.31 -75.0941V150H1008.31L1005.21 -1.67035C986.004 -20.8453 968.921 -34.7112 949.744 -53.886H754V-171.333H1028.06Z" fill="#E4E4E4"/>
<path d="M1212.73 -332C1250.33 -294.408 1271.39 -273.352 1308.98 -235.761V-10.6667H1192.98L1189.88 -162.337C1170.68 -181.512 1153.59 -195.378 1134.42 -214.553H938.673V-332H1212.73Z" fill="#CBCBCB"/>
<path d="M1397.41 -492.667C1435 -455.075 1456.06 -434.019 1493.65 -396.427V-171.333H1377.65L1374.56 -323.004C1355.35 -342.179 1338.27 -356.044 1319.09 -375.219H1123.35V-492.667H1397.41Z" fill="#CBCBCB"/>
<path d="M1582.08 -653.333C1619.67 -615.742 1640.73 -594.686 1678.33 -557.094V-332H1562.33L1559.23 -483.67C1540.02 -502.845 1522.94 -516.711 1503.76 -535.886H1308.02V-653.333H1582.08Z" fill="#CBCBCB"/>
<path d="M1766.75 -814C1804.35 -776.408 1825.4 -755.352 1863 -717.761V-492.667H1747L1743.9 -644.337C1724.7 -663.512 1707.61 -677.378 1688.44 -696.553H1492.69V-814H1766.75Z" fill="#CBCBCB"/>
<path d="M1400.06 1234.67C1437.65 1272.26 1458.71 1293.31 1496.31 1330.91V1556H1380.31L1377.21 1404.33C1358 1385.15 1340.92 1371.29 1321.74 1352.11H1126V1234.67H1400.06Z" fill="#CBCBCB"/>
<path d="M1584.73 1074C1622.33 1111.59 1643.39 1132.65 1680.98 1170.24V1395.33H1564.98L1561.88 1243.66C1542.68 1224.49 1525.59 1210.62 1506.42 1191.45H1310.67V1074H1584.73Z" fill="#CBCBCB"/>
<path d="M1769.41 913.333C1807 950.925 1828.06 971.981 1865.65 1009.57V1234.67H1749.65L1746.56 1083C1727.35 1063.82 1710.27 1049.96 1691.09 1030.78H1495.35V913.333H1769.41Z" fill="#E4E4E4"/>
<path d="M1954.08 752.667C1991.67 790.258 2012.73 811.314 2050.33 848.906V1074H1934.33L1931.23 922.33C1912.02 903.155 1894.94 889.289 1875.76 870.114H1680.02V752.667H1954.08Z" fill="#CBCBCB"/>
<path d="M2138.75 592C2176.35 629.592 2197.4 650.648 2235 688.239V913.333H2119L2115.9 761.663C2096.7 742.488 2079.61 728.622 2060.44 709.447H1864.69V592H2138.75Z" fill="#CBCBCB"/>
</g>
</svg>

