<svg width="510" height="77" viewBox="0 0 510 77" fill="none" xmlns="http://www.w3.org/2000/svg">
<path d="M373.966 76.2048C370.008 76.2048 366.419 75.6116 363.2 74.425C359.98 73.2384 357.236 71.5821 354.967 69.4562C352.75 67.2808 351.035 64.7098 349.821 61.7434C348.607 58.7275 348 55.4397 348 51.8799C348 48.6663 348.607 45.6257 349.821 42.7581C351.035 39.8411 352.75 37.2949 354.967 35.1195C357.236 32.9441 359.98 31.2137 363.2 29.9282C366.419 28.6427 370.008 28 373.966 28C377.027 28 379.877 28.3708 382.516 29.1124C385.155 29.8046 387.477 30.8181 389.483 32.153C391.541 33.4879 393.256 35.0948 394.628 36.9735C396.001 38.8523 396.951 40.9782 397.478 43.3514H390.353C389.087 40.0883 386.976 37.7151 384.02 36.2319C381.065 34.6992 377.555 33.9329 373.491 33.9329C370.853 33.9329 368.398 34.3779 366.129 35.2678C363.912 36.1577 361.986 37.3938 360.35 38.9759C358.714 40.558 357.421 42.4615 356.471 44.6863C355.574 46.8617 355.125 49.2596 355.125 51.8799C355.125 54.5003 355.574 56.9476 356.471 59.2219C357.421 61.4467 358.714 63.3749 360.35 65.0065C361.986 66.638 363.912 67.9235 366.129 68.8629C368.398 69.8022 370.853 70.2719 373.491 70.2719C377.555 70.2719 381.038 69.5303 383.941 68.0471C386.896 66.5144 389.008 64.1165 390.274 60.8535H397.241C396.819 63.2761 395.948 65.4515 394.628 67.3797C393.309 69.2584 391.62 70.8652 389.562 72.2001C387.556 73.4856 385.234 74.4744 382.595 75.1666C379.956 75.8588 377.08 76.2048 373.966 76.2048Z" fill="#F4F5F9"/>
<path d="M406.876 75.4632V28.7416H426.746C429.332 28.7416 431.786 28.9394 434.108 29.3349C436.483 29.681 438.568 30.3732 440.362 31.4114C442.157 32.4497 443.582 33.8835 444.637 35.7128C445.693 37.5421 446.221 39.8905 446.221 42.7581C446.221 46.5156 445.297 49.6798 443.45 52.2507C441.603 54.8217 438.542 56.5521 434.267 57.442L448.358 75.4632H439.175L425.875 57.8128H414V75.4632H406.876ZM425.163 52.0283C427.01 52.0283 428.778 51.9541 430.467 51.8058C432.155 51.608 433.633 51.2125 434.9 50.6192C436.167 49.9765 437.169 49.0371 437.908 47.8011C438.7 46.565 439.096 44.9088 439.096 42.8323C439.096 41.0524 438.805 39.6186 438.225 38.5309C437.644 37.4432 436.826 36.6027 435.771 36.0094C434.715 35.4161 433.396 35.0206 431.813 34.8228C430.282 34.6251 428.514 34.5262 426.508 34.5262H414V52.0283H425.163Z" fill="#F4F5F9"/>
<path d="M456.783 28.7416H470.478L482.828 73.3867L495.97 28.7416H509.665V75.4632H502.54V31.1148L490.111 75.4632H475.466L463.907 31.4856V75.4632H456.783V52.1024V28.7416Z" fill="#F4F5F9"/>
<path d="M0.00498613 74.6868L27.9743 0H44.4017L72.6098 74.6868H61.1823L52.8492 52.1599H19.5218L11.0693 74.6868H0H0.00498613ZM49.3965 42.9182L36.183 7.59158L22.9695 42.9182H49.3965Z" fill="#F4F5F9"/>
<path d="M121.285 74.6868V66.7434C118.743 70.0635 115.768 72.4322 112.36 73.8543C108.947 75.2765 105.295 75.9901 101.41 75.9901C97.5244 75.9901 94.0917 75.3162 91.1167 73.9733C88.1416 72.6304 85.6591 70.7721 83.6791 68.4035C81.6941 66.0299 80.2066 63.245 79.2165 60.0438C78.2215 56.8427 77.729 53.3442 77.729 49.5534V18.1365H87.9626V49.5534C87.9626 54.6128 89.1715 58.7406 91.5943 61.9417C94.0121 65.1429 97.8428 66.7434 103.081 66.7434C105.46 66.7434 107.743 66.3866 109.927 65.678C112.106 64.9694 114.031 63.8793 115.698 62.4174C117.365 60.9556 118.713 59.1568 119.743 57.026C120.773 54.8903 121.29 52.4027 121.29 49.5583V18.1415H131.523V74.6918H121.29L121.285 74.6868Z" fill="#F4F5F9"/>
<path d="M142.473 46.5901C142.473 41.4514 143.264 37.0263 144.856 33.3147C146.443 29.5982 148.607 26.5408 151.344 24.1275C154.08 21.7192 157.234 19.9403 160.806 18.7906C164.378 17.646 168.144 17.0711 172.114 17.0711C175.447 17.0711 178.781 17.5072 182.114 18.3744C185.447 19.2465 188.442 20.5696 191.099 22.3436C193.755 24.1226 195.979 26.3723 197.765 29.1027C199.551 31.8281 200.561 35.0491 200.8 38.7656H190.208C189.731 36.4762 188.92 34.5585 187.771 33.0174C186.621 31.4763 185.228 30.2325 183.606 29.2811C181.98 28.3346 180.174 27.6409 178.189 27.2048C176.204 26.7687 174.144 26.5507 172 26.5507C169.383 26.5507 166.92 26.8877 164.622 27.5566C162.319 28.2305 160.299 29.3554 158.552 30.9362C156.806 32.5169 155.418 34.5932 154.388 37.1601C153.359 39.7319 152.841 42.8686 152.841 46.5851C152.841 50.3016 153.359 53.3244 154.388 55.8912C155.418 58.4631 156.806 60.5146 158.552 62.0557C160.299 63.5968 162.319 64.7217 164.622 65.4352C166.92 66.1488 169.383 66.5006 172 66.5006C174.064 66.5006 176.084 66.2826 178.069 65.8465C180.049 65.4104 181.855 64.7217 183.487 63.7702C185.114 62.8238 186.502 61.575 187.651 60.0339C188.8 58.4928 189.616 56.6147 190.094 54.4046L200.686 54.5236C200.208 58.2401 199.079 61.461 197.293 64.1865C195.507 66.9119 193.308 69.1468 190.686 70.8861C188.069 72.6254 185.154 73.9089 181.94 74.7413C178.726 75.5738 175.452 75.9851 172.119 75.9851C168.149 75.9851 164.383 75.4103 160.811 74.2656C157.239 73.1209 154.085 71.3618 151.349 68.9882C148.612 66.6146 146.448 63.577 144.861 59.8605C143.274 56.144 142.478 51.7238 142.478 46.5802L142.473 46.5901Z" fill="#F4F5F9"/>
<path d="M231.734 74.8058C229.59 74.8058 227.63 74.5877 225.844 74.1517C224.058 73.7156 222.531 72.9079 221.262 71.7236C219.993 70.5392 219.003 68.9387 218.287 66.9218C217.571 64.905 217.217 62.358 217.217 59.2757V26.6746H206.387V18.2555H217.337V0.118927H227.456V18.2555H249.356V26.6746H227.456V59.0379C227.456 61.4115 227.889 63.0517 228.764 63.9585C229.635 64.8703 230.983 65.3213 232.809 65.3213H247.45V74.8058H231.734Z" fill="#F4F5F9"/>
<path d="M273.275 75.995C270.733 75.995 268.236 75.6581 265.778 74.9891C263.316 74.3202 261.136 73.2894 259.231 71.9069C257.326 70.5244 255.778 68.7652 254.589 66.6295C253.4 64.4937 252.803 62.0061 252.803 59.1618C252.803 56.1588 253.44 53.6316 254.709 51.5751C255.977 49.5187 257.644 47.824 259.709 46.4761C261.773 45.1332 264.072 44.0678 266.614 43.275C269.151 42.4871 271.654 41.8924 274.111 41.496L294.464 38.2948C294.464 33.8697 293.374 30.8073 291.19 29.1076C289.006 27.408 285.892 26.5606 281.847 26.5606C279.942 26.5606 278.056 26.739 276.196 27.0958C274.33 27.4526 272.624 28.0422 271.076 28.8747C269.529 29.7023 268.261 30.7925 267.266 32.1354C266.271 33.4783 265.659 35.1383 265.42 37.1155H255.778C255.778 33.7161 256.47 30.7528 257.863 28.2256C259.251 25.6984 261.077 23.6023 263.335 21.9422C265.599 20.2822 268.156 19.0582 271.012 18.2654C273.867 17.4775 276.803 17.081 279.817 17.081C282.832 17.081 285.967 17.3784 288.981 17.9681C291.996 18.5627 294.653 19.5884 296.956 21.0503C299.255 22.5121 301.12 24.4695 302.553 26.9174C303.981 29.3703 304.697 32.4525 304.697 36.164V65.5641H311.125V74.8107H294.464V60.9407C293.116 65.8416 290.534 69.5779 286.728 72.1448C282.917 74.7116 278.435 76 273.28 76L273.275 75.995ZM274.226 49.7912C273.037 50.0291 271.803 50.3264 270.534 50.6782C269.266 51.035 268.096 51.5305 267.022 52.1599C265.952 52.7941 265.057 53.6019 264.345 54.588C263.629 55.5791 263.276 56.7832 263.276 58.2054C263.276 59.7069 263.649 61.0101 264.405 62.1201C265.156 63.2301 266.111 64.1171 267.261 64.7861C268.41 65.46 269.698 65.9555 271.131 66.2677C272.559 66.5849 273.947 66.7434 275.295 66.7434C277.832 66.7434 280.255 66.2528 282.554 65.2618C284.852 64.2757 286.877 62.9476 288.623 61.2926C290.369 59.6325 291.777 57.6752 292.847 55.4254C293.917 53.1757 294.454 50.7427 294.454 48.1361V46.2382L274.221 49.7962L274.226 49.7912Z" fill="#F4F5F9"/>
<path d="M321 67H332.301V76.3369H321V67Z" fill="#F4F5F9"/>
</svg>
