<svg width="265" height="48" viewBox="0 0 265 48" fill="none" xmlns="http://www.w3.org/2000/svg">
<path d="M207.528 47.0797C205.918 47.0797 204.458 46.8137 203.149 46.2815C201.84 45.7494 200.723 45.0066 199.8 44.0532C198.899 43.0776 198.201 41.9246 197.707 40.5943C197.214 39.2417 196.967 37.7673 196.967 36.1709C196.967 34.7297 197.214 33.366 197.707 32.08C198.201 30.7719 198.899 29.63 199.8 28.6544C200.723 27.6788 201.84 26.9028 203.149 26.3263C204.458 25.7498 205.918 25.4615 207.528 25.4615C208.773 25.4615 209.932 25.6278 211.006 25.9604C212.079 26.2708 213.023 26.7254 213.839 27.324C214.676 27.9227 215.374 28.6433 215.932 29.4859C216.49 30.3284 216.877 31.2818 217.091 32.3461H214.193C213.678 30.8827 212.819 29.8185 211.617 29.1533C210.415 28.4659 208.988 28.1223 207.335 28.1223C206.262 28.1223 205.263 28.3218 204.34 28.7209C203.439 29.12 202.655 29.6743 201.99 30.3838C201.324 31.0934 200.798 31.947 200.412 32.9448C200.047 33.9204 199.865 34.9957 199.865 36.1709C199.865 37.346 200.047 38.4436 200.412 39.4635C200.798 40.4613 201.324 41.326 201.99 42.0577C202.655 42.7894 203.439 43.3658 204.34 43.7871C205.263 44.2084 206.262 44.419 207.335 44.419C208.988 44.419 210.405 44.0864 211.585 43.4213C212.787 42.7339 213.646 41.6586 214.161 40.1952H216.995C216.823 41.2816 216.469 42.2572 215.932 43.1219C215.395 43.9645 214.709 44.6851 213.871 45.2838C213.056 45.8602 212.111 46.3037 211.038 46.6141C209.964 46.9245 208.795 47.0797 207.528 47.0797Z" fill="#151515"/>
<path d="M220.933 47.0796V26.1265H229.015C230.067 26.1265 231.065 26.2152 232.01 26.3926C232.976 26.5478 233.824 26.8582 234.553 27.3239C235.283 27.7895 235.863 28.4325 236.292 29.2529C236.721 30.0733 236.936 31.1264 236.936 32.4124C236.936 34.0976 236.56 35.5166 235.809 36.6696C235.058 37.8225 233.813 38.5986 232.074 38.9977L237.805 47.0796H234.07L228.661 39.164H223.831V47.0796H220.933ZM228.371 36.5698C229.122 36.5698 229.841 36.5365 230.528 36.47C231.215 36.3813 231.816 36.2039 232.332 35.9379C232.847 35.6496 233.255 35.2284 233.555 34.674C233.877 34.1197 234.038 33.3769 234.038 32.4457C234.038 31.6475 233.92 31.0045 233.684 30.5167C233.448 30.0289 233.115 29.652 232.686 29.3859C232.256 29.1198 231.72 28.9425 231.076 28.8538C230.453 28.7651 229.734 28.7207 228.918 28.7207H223.831V36.5698H228.371Z" fill="#151515"/>
<path d="M243.195 26.1265H248.765L253.788 46.1483L259.133 26.1265H264.704V47.0796H261.806V27.1908L256.751 47.0796H250.794L246.093 27.3571V47.0796H243.195V26.1265Z" fill="#151515"/>
<path fill-rule="evenodd" clip-rule="evenodd" d="M47.5805 10.6579L50.9924 14.0738V47.0796H40.4677V34.4056L29.7036 47.0796H13.5944C6.13003 47.0796 0 40.7825 0 33.1134V24.6298C0 16.9569 6.13765 10.6579 13.6134 10.6579H47.5805ZM18.6657 18.0226C13.1554 18.0226 10.3213 19.7181 10.3213 25.2863V32.4702C10.3213 38.0384 13.1573 39.8158 18.6657 39.8158H26.5369L40.4677 23.351V18.0226H18.6657Z" fill="#FF4207"/>
<path d="M55.4625 0C57.8175 2.35783 59.1367 3.67852 61.4917 6.03635V20.1548H54.2251L54.0312 10.6417C52.828 9.43896 51.7578 8.56926 50.5565 7.36657H38.2946V0H55.4625Z" fill="#FF4207"/>
<path d="M66.2969 46.5485L77.612 16.3339H84.2577L95.6693 46.5485H91.0463L87.6751 37.4352H74.1925L70.773 46.5485H66.2949H66.2969ZM86.2783 33.6964L80.9328 19.405L75.5872 33.6964H86.2783Z" fill="#151515"/>
<path d="M115.361 46.5485V43.335C114.332 44.6781 113.129 45.6364 111.75 46.2117C110.37 46.787 108.892 47.0757 107.32 47.0757C105.749 47.0757 104.36 46.8031 103.156 46.2598C101.953 45.7165 100.948 44.9648 100.147 44.0065C99.3443 43.0463 98.7426 41.9197 98.342 40.6246C97.9395 39.3296 97.7403 37.9143 97.7403 36.3807V23.671H101.88V36.3807C101.88 38.4275 102.369 40.0974 103.349 41.3924C104.328 42.6875 105.877 43.335 107.997 43.335C108.959 43.335 109.882 43.1906 110.766 42.904C111.648 42.6173 112.426 42.1763 113.101 41.5849C113.775 40.9935 114.32 40.2658 114.737 39.4038C115.154 38.5398 115.363 37.5334 115.363 36.3827V23.673H119.503V46.5505H115.363L115.361 46.5485Z" fill="#151515"/>
<path d="M123.933 35.1819C123.933 33.1031 124.253 31.3129 124.897 29.8114C125.539 28.3078 126.414 27.071 127.521 26.0947C128.628 25.1204 129.904 24.4007 131.349 23.9356C132.794 23.4725 134.318 23.24 135.924 23.24C137.272 23.24 138.621 23.4164 139.969 23.7672C141.318 24.1201 142.529 24.6553 143.604 25.373C144.679 26.0927 145.579 27.0028 146.301 28.1074C147.024 29.21 147.432 30.513 147.529 32.0165H143.244C143.051 31.0904 142.723 30.3145 142.258 29.6911C141.793 29.0676 141.229 28.5644 140.573 28.1795C139.915 27.7967 139.184 27.516 138.381 27.3396C137.578 27.1632 136.745 27.075 135.878 27.075C134.819 27.075 133.823 27.2113 132.893 27.4819C131.961 27.7546 131.144 28.2096 130.437 28.8491C129.731 29.4886 129.17 30.3286 128.753 31.367C128.336 32.4074 128.127 33.6764 128.127 35.1799C128.127 36.6834 128.336 37.9063 128.753 38.9447C129.17 39.9851 129.731 40.8151 130.437 41.4385C131.144 42.062 131.961 42.5171 132.893 42.8057C133.823 43.0944 134.819 43.2367 135.878 43.2367C136.713 43.2367 137.53 43.1485 138.333 42.9721C139.134 42.7957 139.865 42.5171 140.525 42.1322C141.183 41.7493 141.744 41.2441 142.209 40.6206C142.674 39.9972 143.004 39.2374 143.198 38.3433L147.482 38.3914C147.289 39.8949 146.832 41.198 146.11 42.3006C145.387 43.4031 144.498 44.3073 143.437 45.0109C142.378 45.7145 141.199 46.2338 139.899 46.5705C138.599 46.9073 137.274 47.0737 135.926 47.0737C134.32 47.0737 132.796 46.8412 131.351 46.3781C129.906 45.915 128.63 45.2033 127.523 44.2431C126.416 43.2829 125.541 42.054 124.899 40.5505C124.257 39.047 123.935 37.2588 123.935 35.1779L123.933 35.1819Z" fill="#151515"/>
<path d="M160.043 46.5966C159.176 46.5966 158.383 46.5084 157.66 46.332C156.938 46.1556 156.32 45.8288 155.807 45.3497C155.293 44.8706 154.893 44.2231 154.603 43.4072C154.313 42.5912 154.17 41.5608 154.17 40.3139V27.1251H149.789V23.7191H154.219V16.382H158.312V23.7191H167.172V27.1251H158.312V40.2177C158.312 41.1779 158.488 41.8415 158.842 42.2084C159.194 42.5772 159.739 42.7596 160.478 42.7596H166.401V46.5966H160.043Z" fill="#151515"/>
<path d="M176.849 47.0777C175.82 47.0777 174.81 46.9414 173.816 46.6708C172.819 46.4001 171.938 45.9832 171.167 45.4239C170.396 44.8646 169.77 44.1529 169.289 43.2889C168.808 42.4249 168.567 41.4185 168.567 40.2678C168.567 39.053 168.824 38.0306 169.338 37.1986C169.851 36.3667 170.525 35.6811 171.36 35.1358C172.196 34.5925 173.125 34.1615 174.154 33.8408C175.18 33.522 176.193 33.2815 177.187 33.1211L185.421 31.8261C185.421 30.0359 184.98 28.797 184.096 28.1094C183.213 27.4218 181.953 27.079 180.317 27.079C179.546 27.079 178.783 27.1511 178.03 27.2955C177.275 27.4398 176.585 27.6784 175.959 28.0152C175.333 28.3499 174.82 28.791 174.417 29.3343C174.015 29.8775 173.767 30.5491 173.671 31.349H169.77C169.77 29.9737 170.05 28.7749 170.614 27.7526C171.175 26.7302 171.914 25.8822 172.828 25.2106C173.743 24.539 174.778 24.0439 175.933 23.7231C177.088 23.4044 178.276 23.244 179.495 23.244C180.715 23.244 181.983 23.3643 183.203 23.6029C184.422 23.8434 185.497 24.2584 186.429 24.8498C187.359 25.4412 188.113 26.233 188.693 27.2233C189.271 28.2156 189.561 29.4625 189.561 30.9641V42.8579H192.161V46.5986H185.421V40.9875C184.875 42.9701 183.831 44.4817 182.291 45.5201C180.749 46.5585 178.936 47.0797 176.851 47.0797L176.849 47.0777ZM177.233 36.4769C176.752 36.5732 176.253 36.6935 175.74 36.8358C175.227 36.9801 174.754 37.1806 174.319 37.4352C173.886 37.6918 173.524 38.0186 173.236 38.4175C172.946 38.8184 172.803 39.3056 172.803 39.8809C172.803 40.4883 172.954 41.0156 173.26 41.4646C173.564 41.9137 173.951 42.2725 174.415 42.5431C174.88 42.8158 175.402 43.0162 175.981 43.1425C176.559 43.2708 177.12 43.335 177.666 43.335C178.692 43.335 179.672 43.1365 180.602 42.7356C181.532 42.3366 182.351 41.7994 183.058 41.1298C183.764 40.4583 184.334 39.6664 184.766 38.7563C185.199 37.8461 185.417 36.8618 185.417 35.8074V35.0396L177.231 36.479L177.233 36.4769Z" fill="#151515"/>
</svg>


