<svg width="165" height="46" viewBox="0 0 165 46" fill="none" xmlns="http://www.w3.org/2000/svg">
<path fill-rule="evenodd" clip-rule="evenodd" d="M41.2018 10.3514L44.1563 13.669V45.7255H35.0426V33.416L25.7215 45.7255H11.7719C5.30823 45.7255 0 39.6096 0 32.161V23.9214C0 16.4692 5.31483 10.3514 11.7884 10.3514H41.2018ZM16.1634 17.5042C11.3917 17.5042 8.93761 19.151 8.93761 24.5591V31.5363C8.93761 36.9444 11.3934 38.6707 16.1634 38.6707H22.9793L35.0426 22.6794V17.5042H16.1634Z" fill="white"/>
<path d="M48.0271 0C50.0664 2.29001 51.2087 3.57272 53.2481 5.86274V19.5751H46.9556L46.7877 10.3356C45.7458 9.16748 44.8191 8.32279 43.7789 7.15469H33.1607V0H48.0271Z" fill="white"/>
<path d="M55.5896 45.484L65.3877 16.1384H71.1425L81.0243 45.484H77.021L74.1018 36.6328H62.4267L59.4657 45.484H55.5879H55.5896ZM72.8923 33.0016L68.2634 19.1213L63.6345 33.0016H72.8923Z" fill="#F4F5F9"/>
<path d="M98.076 45.484V42.363C97.1854 43.6675 96.1432 44.5981 94.9494 45.1569C93.7538 45.7157 92.4746 45.9961 91.1134 45.9961C89.7523 45.9961 88.5498 45.7313 87.5076 45.2037C86.4654 44.676 85.5957 43.9459 84.902 43.0152C84.2067 42.0826 83.6856 40.9883 83.3387 39.7306C82.9902 38.4728 82.8176 37.0982 82.8176 35.6087V23.2645H86.4026V35.6087C86.4026 37.5966 86.8261 39.2185 87.6749 40.4763C88.5219 41.7341 89.8638 42.363 91.699 42.363C92.5321 42.363 93.332 42.2228 94.0971 41.9443C94.8605 41.6659 95.535 41.2376 96.1188 40.6632C96.7027 40.0888 97.175 39.3821 97.5357 38.5448C97.8965 37.7057 98.0777 36.7283 98.0777 35.6107V23.2665H101.663V45.486H98.0777L98.076 45.484Z" fill="#F4F5F9"/>
<path d="M105.499 34.4444C105.499 32.4253 105.776 30.6866 106.333 29.2283C106.889 27.768 107.648 26.5667 108.606 25.6185C109.565 24.6723 110.67 23.9733 111.921 23.5216C113.172 23.0718 114.492 22.8459 115.882 22.8459C117.05 22.8459 118.218 23.0173 119.385 23.358C120.553 23.7007 121.602 24.2205 122.533 24.9176C123.464 25.6166 124.243 26.5005 124.868 27.5733C125.494 28.6442 125.848 29.9098 125.931 31.37H122.221C122.054 30.4705 121.77 29.717 121.367 29.1115C120.964 28.5059 120.476 28.0172 119.908 27.6434C119.338 27.2715 118.706 26.999 118.01 26.8276C117.315 26.6563 116.593 26.5706 115.842 26.5706C114.926 26.5706 114.063 26.703 113.258 26.9659C112.451 27.2306 111.743 27.6726 111.131 28.2937C110.52 28.9148 110.033 29.7306 109.673 30.7392C109.312 31.7497 109.131 32.9822 109.131 34.4424C109.131 35.9027 109.312 37.0904 109.673 38.099C110.033 39.1095 110.52 39.9155 111.131 40.5211C111.743 41.1266 112.451 41.5686 113.258 41.8489C114.063 42.1293 114.926 42.2675 115.842 42.2675C116.566 42.2675 117.273 42.1819 117.968 42.0105C118.662 41.8392 119.295 41.5686 119.866 41.1947C120.436 40.8229 120.923 40.3322 121.325 39.7267C121.728 39.1211 122.014 38.3832 122.181 37.5148L125.891 37.5616C125.724 39.0218 125.328 40.2874 124.703 41.3583C124.077 42.4291 123.307 43.3073 122.388 43.9907C121.472 44.6741 120.45 45.1784 119.324 45.5055C118.199 45.8326 117.052 45.9942 115.884 45.9942C114.493 45.9942 113.174 45.7683 111.923 45.3185C110.671 44.8688 109.566 44.1776 108.608 43.245C107.649 42.3123 106.891 41.1188 106.335 39.6585C105.779 38.1983 105.5 36.4615 105.5 34.4405L105.499 34.4444Z" fill="#F4F5F9"/>
<path d="M136.768 45.5308C136.017 45.5308 135.33 45.4451 134.705 45.2738C134.079 45.1024 133.544 44.7851 133.1 44.3197C132.655 43.8544 132.308 43.2255 132.057 42.433C131.806 41.6406 131.683 40.6398 131.683 39.4288V26.6193H127.889V23.3113H131.725V16.1852H135.269V23.3113H142.941V26.6193H135.269V39.3353C135.269 40.2679 135.421 40.9124 135.728 41.2687C136.033 41.627 136.505 41.8042 137.145 41.8042H142.274V45.5308H136.768Z" fill="#F4F5F9"/>
<path d="M151.321 45.9981C150.43 45.9981 149.555 45.8657 148.694 45.6028C147.832 45.34 147.068 44.935 146.401 44.3918C145.733 43.8485 145.191 43.1573 144.775 42.3182C144.358 41.479 144.149 40.5016 144.149 39.384C144.149 38.2041 144.372 37.2111 144.817 36.4031C145.261 35.5951 145.845 34.9292 146.568 34.3996C147.291 33.872 148.097 33.4533 148.987 33.1418C149.876 32.8322 150.753 32.5986 151.614 32.4428L158.743 31.1851C158.743 29.4464 158.362 28.2431 157.597 27.5753C156.832 26.9074 155.741 26.5745 154.324 26.5745C153.656 26.5745 152.996 26.6446 152.344 26.7848C151.69 26.925 151.092 27.1567 150.55 27.4838C150.008 27.8089 149.564 28.2373 149.215 28.7649C148.867 29.2926 148.652 29.9448 148.569 30.7217H145.191C145.191 29.386 145.434 28.2217 145.922 27.2287C146.408 26.2357 147.047 25.4121 147.839 24.7599C148.632 24.1076 149.527 23.6267 150.528 23.3152C151.528 23.0056 152.556 22.8498 153.613 22.8498C154.669 22.8498 155.767 22.9667 156.823 23.1984C157.879 23.432 158.81 23.835 159.617 24.4094C160.422 24.9838 161.075 25.7529 161.577 26.7147C162.077 27.6785 162.328 28.8895 162.328 30.3478V41.8996H164.58V45.5327H158.743V40.083C158.271 42.0086 157.367 43.4767 156.033 44.4852C154.698 45.4938 153.128 46 151.323 46L151.321 45.9981ZM151.654 35.7022C151.237 35.7956 150.805 35.9124 150.36 36.0507C149.916 36.1909 149.506 36.3856 149.13 36.6328C148.755 36.8821 148.442 37.1994 148.192 37.5869C147.941 37.9763 147.818 38.4494 147.818 39.0082C147.818 39.5982 147.948 40.1102 148.213 40.5464C148.476 40.9825 148.811 41.331 149.214 41.5939C149.616 41.8587 150.068 42.0534 150.57 42.176C151.07 42.3006 151.556 42.363 152.028 42.363C152.917 42.363 153.766 42.1702 154.571 41.7808C155.376 41.3933 156.086 40.8715 156.697 40.2212C157.309 39.569 157.802 38.7999 158.177 37.9159C158.552 37.032 158.74 36.076 158.74 35.0519V34.3061L151.652 35.7041L151.654 35.7022Z" fill="#F4F5F9"/>
</svg>

